<svg version="1.2" xmlns="http://www.w3.org/2000/svg" viewBox="0 0 1594 1595" width="300" height="300">
	<title>TBI_BIG-svg-svg</title>
	<style>
		.s0 { fill: #ffffff } 
		.s1 { fill: #000033 } 
		.s2 { fill: #00aeef } 
	</style>
	<g id="Clip-Path: Clip-Path">
		<g id="Clip-Path">
			<g id="Layer">
				<path id="Layer copy" class="s0" d="m0 91c0-50.3 40.7-91 91-91h1411.8c50.2 0 91 40.7 91 91v1412.3c0 50.3-40.8 91-91 91h-1411.8c-50.3 0-91-40.7-91-91z"/>
				<path id="Layer" class="s1" d="m43 134c0-50.2 40.8-91 91-91h1309.6c50.3 0 91 40.8 91 91v1310.2c0 50.2-40.7 91-91 91h-1309.6c-50.2 0-91-40.8-91-91z"/>
				<path id="Layer" class="s0" d="m803.9 1252.3h-320.5v-454.3h320.5c28.5 0 52.7-23.7 52.7-52.7 0-28.5-24.2-52.2-52.7-52.2h-320.5v-182.3c0-28.5-23.7-52.7-52.2-52.7-29 0-52.7 24.2-52.7 52.7v791.5c0 1.1 0 1.1 0 2.7 0 28.5 23.7 52.7 52.7 52.7h372.7c28.5 0 52.7-24.2 52.7-52.7 0-28.5-24.2-52.7-52.7-52.7z"/>
				<path id="Layer" class="s2" d="m1200.7 465.7v-1.7c0-26.8-21-49.4-47.8-52.7-1.7 0-3.3 0-6 0h-318.8v-180.1c0-28.5-24.2-52.7-52.7-52.7-28.5 0-52.7 24.2-52.7 52.7v232.8c0 28.5 24.2 52.7 52.7 52.7h320.5v454.4h-320.5c-28.5 0-52.7 24.2-52.7 52.7 0 28.5 24.2 52.7 52.7 52.7h373.1c28.5 0 52.2-24.2 52.2-52.7v-1.6z"/>
			</g>
		</g>
	</g>
</svg>